<svg xmlns="http://www.w3.org/2000/svg" xmlns:xlink="http://www.w3.org/1999/xlink" preserveAspectRatio="xMidYMid" width="14" height="14" viewBox="0 0 14 14">
  <defs>
    <style>
      .cls-1 {
        fill: #bdc3d3;
        fill-rule: evenodd;
      }
    </style>
  </defs>
  <path d="M7.700,6.300 L9.800,6.300 C10.187,6.300 10.500,6.613 10.500,7.000 C10.500,7.387 10.187,7.700 9.800,7.700 L7.700,7.700 L7.700,9.800 C7.700,10.187 7.387,10.500 7.000,10.500 C6.613,10.500 6.300,10.187 6.300,9.800 L6.300,7.700 L4.200,7.700 C3.813,7.700 3.500,7.387 3.500,7.000 C3.500,6.613 3.813,6.300 4.200,6.300 L6.300,6.300 L6.300,4.200 C6.300,3.813 6.613,3.500 7.000,3.500 C7.387,3.500 7.700,3.813 7.700,4.200 L7.700,6.300 ZM2.800,-0.000 L11.200,-0.000 C12.746,-0.000 14.000,1.254 14.000,2.800 L14.000,11.200 C14.000,12.746 12.746,14.000 11.200,14.000 L2.800,14.000 C1.254,14.000 -0.000,12.746 -0.000,11.200 L-0.000,2.800 C-0.000,1.254 1.254,-0.000 2.800,-0.000 ZM2.800,1.400 C2.027,1.400 1.400,2.027 1.400,2.800 L1.400,11.200 C1.400,11.973 2.027,12.600 2.800,12.600 L11.200,12.600 C11.973,12.600 12.600,11.973 12.600,11.200 L12.600,2.800 C12.600,2.027 11.973,1.400 11.200,1.400 L2.800,1.400 Z" class="cls-1"/>
</svg>
