<svg xmlns="http://www.w3.org/2000/svg" xmlns:xlink="http://www.w3.org/1999/xlink" preserveAspectRatio="xMidYMid" width="14" height="14" viewBox="0 0 14 14">
  <defs>
    <style>
      .cls-1 {
        fill: #bdc3d3;
        fill-rule: evenodd;
      }
    </style>
  </defs>
  <path d="M7.082,8.000 C4.920,8.000 3.168,6.209 3.168,4.000 C3.168,1.791 4.920,-0.000 7.082,-0.000 C9.243,-0.000 10.995,1.791 10.995,4.000 C10.995,6.209 9.243,8.000 7.082,8.000 ZM7.082,6.667 C8.522,6.667 9.690,5.473 9.690,4.000 C9.690,2.527 8.522,1.333 7.082,1.333 C5.641,1.333 4.473,2.527 4.473,4.000 C4.473,5.473 5.641,6.667 7.082,6.667 ZM0.560,12.667 L0.560,11.333 C0.560,9.860 1.728,8.667 3.168,8.667 L10.995,8.667 C12.435,8.667 13.603,9.860 13.603,11.333 L13.603,12.667 C13.603,13.403 13.019,14.000 12.299,14.000 L1.864,14.000 C1.144,14.000 0.560,13.403 0.560,12.667 ZM1.864,12.667 L12.299,12.667 L12.299,11.333 C12.299,10.597 11.715,10.000 10.995,10.000 L3.168,10.000 C2.448,10.000 1.864,10.597 1.864,11.333 L1.864,12.667 Z" class="cls-1"/>
</svg>
