<svg xmlns="http://www.w3.org/2000/svg" xmlns:xlink="http://www.w3.org/1999/xlink" preserveAspectRatio="xMidYMid" width="14" height="14" viewBox="0 0 14 14">
  <defs>
    <style>
      .cls-1 {
        fill: #bdc3d3;
        fill-rule: evenodd;
      }
    </style>
  </defs>
  <path d="M2.100,-0.000 L4.200,-0.000 C5.360,-0.000 6.300,0.940 6.300,2.100 L6.300,4.200 C6.300,5.360 5.360,6.300 4.200,6.300 L2.100,6.300 C0.940,6.300 -0.000,5.360 -0.000,4.200 L-0.000,2.100 C-0.000,0.940 0.940,-0.000 2.100,-0.000 ZM2.100,1.400 C1.713,1.400 1.400,1.713 1.400,2.100 L1.400,4.200 C1.400,4.587 1.713,4.900 2.100,4.900 L4.200,4.900 C4.587,4.900 4.900,4.587 4.900,4.200 L4.900,2.100 C4.900,1.713 4.587,1.400 4.200,1.400 L2.100,1.400 ZM2.100,7.700 L4.200,7.700 C5.360,7.700 6.300,8.640 6.300,9.800 L6.300,11.900 C6.300,13.060 5.360,14.000 4.200,14.000 L2.100,14.000 C0.940,14.000 -0.000,13.060 -0.000,11.900 L-0.000,9.800 C-0.000,8.640 0.940,7.700 2.100,7.700 ZM2.100,9.100 C1.713,9.100 1.400,9.413 1.400,9.800 L1.400,11.900 C1.400,12.287 1.713,12.600 2.100,12.600 L4.200,12.600 C4.587,12.600 4.900,12.287 4.900,11.900 L4.900,9.800 C4.900,9.413 4.587,9.100 4.200,9.100 L2.100,9.100 ZM9.800,-0.000 L11.900,-0.000 C13.060,-0.000 14.000,0.940 14.000,2.100 L14.000,4.200 C14.000,5.360 13.060,6.300 11.900,6.300 L9.800,6.300 C8.640,6.300 7.700,5.360 7.700,4.200 L7.700,2.100 C7.700,0.940 8.640,-0.000 9.800,-0.000 ZM9.800,1.400 C9.413,1.400 9.100,1.713 9.100,2.100 L9.100,4.200 C9.100,4.587 9.413,4.900 9.800,4.900 L11.900,4.900 C12.287,4.900 12.600,4.587 12.600,4.200 L12.600,2.100 C12.600,1.713 12.287,1.400 11.900,1.400 L9.800,1.400 ZM9.800,7.700 L11.900,7.700 C13.060,7.700 14.000,8.640 14.000,9.800 L14.000,11.900 C14.000,13.060 13.060,14.000 11.900,14.000 L9.800,14.000 C8.640,14.000 7.700,13.060 7.700,11.900 L7.700,9.800 C7.700,8.640 8.640,7.700 9.800,7.700 ZM9.800,9.100 C9.413,9.100 9.100,9.413 9.100,9.800 L9.100,11.900 C9.100,12.287 9.413,12.600 9.800,12.600 L11.900,12.600 C12.287,12.600 12.600,12.287 12.600,11.900 L12.600,9.800 C12.600,9.413 12.287,9.100 11.900,9.100 L9.800,9.100 Z" class="cls-1"/>
</svg>
