<svg xmlns="http://www.w3.org/2000/svg" xmlns:xlink="http://www.w3.org/1999/xlink" preserveAspectRatio="xMidYMid" width="15" height="15" viewBox="0 0 15 15">
  <defs>
    <style>
      .cls-1 {
        fill: #bdc3d3;
        fill-rule: evenodd;
      }
    </style>
  </defs>
  <path d="M7.972,14.988 C4.103,14.988 0.967,11.852 0.967,7.983 C0.967,4.114 4.103,0.978 7.972,0.978 C11.841,0.978 14.977,4.114 14.977,7.983 C14.977,11.852 11.841,14.988 7.972,14.988 ZM7.972,13.715 C11.137,13.715 13.703,11.149 13.703,7.983 C13.703,4.818 11.137,2.252 7.972,2.252 C4.806,2.252 2.240,4.818 2.240,7.983 C2.240,11.149 4.806,13.715 7.972,13.715 ZM8.609,4.162 L8.609,7.672 L11.229,9.709 C11.506,9.925 11.556,10.325 11.340,10.603 C11.125,10.880 10.724,10.931 10.447,10.715 L7.581,8.486 C7.426,8.365 7.335,8.180 7.335,7.983 L7.335,4.162 C7.335,3.810 7.620,3.525 7.972,3.525 C8.324,3.525 8.609,3.810 8.609,4.162 Z" class="cls-1"/>
</svg>
