<svg xmlns="http://www.w3.org/2000/svg" xmlns:xlink="http://www.w3.org/1999/xlink" preserveAspectRatio="xMidYMid" width="10" height="14" viewBox="0 0 10 14">
  <defs>
    <style>
      .cls-1 {
        fill: #bdc3d3;
        fill-rule: evenodd;
      }
    </style>
  </defs>
  <path d="M6.138,1.400 L6.138,0.700 C6.138,0.313 5.828,-0.000 5.445,-0.000 C5.061,-0.000 4.751,0.313 4.751,0.700 L4.751,1.400 L4.057,1.400 C2.333,1.400 0.936,2.810 0.936,4.550 C0.936,6.290 2.333,7.700 4.057,7.700 L6.832,7.700 C7.790,7.700 8.566,8.484 8.566,9.450 C8.566,10.417 7.790,11.200 6.832,11.200 L5.468,11.200 C5.460,11.200 5.452,11.200 5.445,11.200 C5.437,11.200 5.429,11.200 5.421,11.200 L4.057,11.200 C3.291,11.200 2.670,10.574 2.670,9.800 C2.670,9.414 2.359,9.100 1.976,9.100 C1.593,9.100 1.282,9.414 1.282,9.800 C1.282,11.347 2.525,12.600 4.057,12.600 L4.751,12.600 L4.751,13.300 C4.751,13.687 5.061,14.000 5.445,14.000 C5.828,14.000 6.138,13.687 6.138,13.300 L6.138,12.600 L6.832,12.600 C8.556,12.600 9.954,11.190 9.954,9.450 C9.953,7.710 8.556,6.300 6.832,6.300 L4.057,6.300 C3.099,6.300 2.323,5.517 2.323,4.550 C2.323,3.584 3.100,2.800 4.057,2.800 L6.832,2.800 C7.598,2.800 8.219,3.427 8.219,4.200 C8.219,4.587 8.530,4.900 8.913,4.900 C9.296,4.900 9.607,4.587 9.607,4.200 C9.607,2.654 8.364,1.400 6.832,1.400 L6.138,1.400 Z" class="cls-1"/>
</svg>
