<svg xmlns="http://www.w3.org/2000/svg" xmlns:xlink="http://www.w3.org/1999/xlink" preserveAspectRatio="xMidYMid" width="14" height="12" viewBox="0 0 14 12">
  <defs>
    <style>
      .cls-1 {
        fill: #bdc3d3;
        fill-rule: evenodd;
      }
    </style>
  </defs>
  <path d="M14.000,3.857 C14.000,3.866 14.000,3.876 14.000,3.885 L14.000,8.790 C14.000,10.148 12.860,11.249 11.454,11.249 L2.546,11.249 C1.140,11.249 0.000,10.148 0.000,8.790 L0.000,3.885 C-0.000,3.876 -0.000,3.866 0.000,3.857 L0.000,2.641 C0.000,1.283 1.140,0.181 2.546,0.181 L11.454,0.181 C12.860,0.181 14.000,1.283 14.000,2.641 L14.000,3.857 ZM12.727,3.413 L12.727,2.641 C12.727,1.962 12.157,1.411 11.454,1.411 L2.546,1.411 C1.843,1.411 1.273,1.962 1.273,2.641 L1.273,3.413 L6.817,5.020 C6.936,5.055 7.064,5.055 7.183,5.020 L12.727,3.413 ZM12.727,4.697 L7.549,6.198 C7.191,6.302 6.809,6.302 6.451,6.198 L1.273,4.697 L1.273,8.790 C1.273,9.469 1.843,10.019 2.546,10.019 L11.454,10.019 C12.157,10.019 12.727,9.469 12.727,8.790 L12.727,4.697 Z" class="cls-1"/>
</svg>
