<svg xmlns="http://www.w3.org/2000/svg" xmlns:xlink="http://www.w3.org/1999/xlink" preserveAspectRatio="xMidYMid" width="14" height="14" viewBox="0 0 14 14">
  <defs>
    <style>
      .cls-1 {
        fill: #bdc3d3;
        fill-rule: evenodd;
      }
    </style>
  </defs>
  <path d="M11.200,8.280 C10.384,7.992 9.800,7.214 9.800,6.300 C9.800,5.386 10.384,4.608 11.200,4.319 L11.200,0.700 C11.200,0.313 11.513,-0.000 11.900,-0.000 C12.287,-0.000 12.600,0.313 12.600,0.700 L12.600,4.319 C13.416,4.608 14.000,5.386 14.000,6.300 C14.000,7.214 13.416,7.992 12.600,8.280 L12.600,13.300 C12.600,13.687 12.287,14.000 11.900,14.000 C11.513,14.000 11.200,13.687 11.200,13.300 L11.200,8.280 ZM7.700,8.519 C8.516,8.808 9.100,9.586 9.100,10.500 C9.100,11.414 8.516,12.192 7.700,12.480 L7.700,13.300 C7.700,13.687 7.387,14.000 7.000,14.000 C6.613,14.000 6.300,13.687 6.300,13.300 L6.300,12.480 C5.484,12.192 4.900,11.414 4.900,10.500 C4.900,9.586 5.484,8.808 6.300,8.519 L6.300,0.700 C6.300,0.313 6.613,-0.000 7.000,-0.000 C7.387,-0.000 7.700,0.313 7.700,0.700 L7.700,8.519 ZM2.800,1.519 C3.616,1.808 4.200,2.586 4.200,3.500 C4.200,4.414 3.616,5.192 2.800,5.480 L2.800,13.300 C2.800,13.687 2.487,14.000 2.100,14.000 C1.713,14.000 1.400,13.687 1.400,13.300 L1.400,5.480 C0.584,5.192 -0.000,4.414 -0.000,3.500 C-0.000,2.586 0.584,1.808 1.400,1.519 L1.400,0.700 C1.400,0.313 1.713,-0.000 2.100,-0.000 C2.487,-0.000 2.800,0.313 2.800,0.700 L2.800,1.519 ZM2.100,4.200 C2.487,4.200 2.800,3.887 2.800,3.500 C2.800,3.113 2.487,2.800 2.100,2.800 C1.713,2.800 1.400,3.113 1.400,3.500 C1.400,3.887 1.713,4.200 2.100,4.200 ZM7.000,11.200 C7.387,11.200 7.700,10.887 7.700,10.500 C7.700,10.113 7.387,9.800 7.000,9.800 C6.613,9.800 6.300,10.113 6.300,10.500 C6.300,10.887 6.613,11.200 7.000,11.200 ZM11.900,7.000 C12.287,7.000 12.600,6.687 12.600,6.300 C12.600,5.913 12.287,5.600 11.900,5.600 C11.513,5.600 11.200,5.913 11.200,6.300 C11.200,6.687 11.513,7.000 11.900,7.000 Z" class="cls-1"/>
</svg>
