<svg xmlns="http://www.w3.org/2000/svg" xmlns:xlink="http://www.w3.org/1999/xlink" preserveAspectRatio="xMidYMid" width="14" height="14" viewBox="0 0 14 14">
  <defs>
    <style>
      .cls-1 {
        fill: #bdc3d3;
        fill-rule: evenodd;
      }
    </style>
  </defs>
  <path d="M4.533,7.077 C4.650,6.630 4.890,6.230 5.215,5.916 L3.266,2.593 L3.264,2.590 C3.090,2.290 3.194,1.909 3.498,1.736 C4.553,1.135 5.752,0.814 6.998,0.814 C8.243,0.814 9.443,1.135 10.498,1.736 C10.802,1.910 10.906,2.293 10.730,2.592 L10.728,2.595 L8.781,5.916 C9.106,6.230 9.345,6.630 9.462,7.077 L13.360,7.077 C13.535,7.077 13.694,7.147 13.810,7.261 C13.925,7.374 13.996,7.531 13.996,7.704 C13.996,8.930 13.670,10.110 13.059,11.149 C12.445,12.194 11.561,13.065 10.500,13.669 C10.214,13.832 9.853,13.752 9.665,13.493 C9.651,13.478 9.639,13.460 9.628,13.441 L7.679,10.118 C7.462,10.177 7.234,10.209 6.998,10.209 C6.762,10.209 6.533,10.177 6.316,10.118 L4.368,13.441 C4.365,13.446 4.362,13.450 4.359,13.455 L4.359,13.455 C4.180,13.745 3.797,13.841 3.498,13.671 C2.436,13.066 1.551,12.195 0.937,11.149 C0.326,10.110 -0.000,8.930 -0.000,7.704 C-0.000,7.531 0.071,7.374 0.186,7.261 C0.301,7.147 0.460,7.077 0.636,7.077 L4.533,7.077 ZM4.533,8.330 L1.307,8.330 C1.394,9.108 1.643,9.851 2.038,10.522 C2.434,11.196 2.968,11.782 3.601,12.242 L3.601,12.242 L5.215,9.491 C4.890,9.177 4.650,8.778 4.533,8.330 ZM7.679,5.289 L9.293,2.538 L9.293,2.538 C8.578,2.229 7.800,2.067 6.998,2.067 C6.195,2.067 5.418,2.229 4.703,2.538 L6.316,5.289 C6.533,5.230 6.762,5.198 6.998,5.198 C7.234,5.198 7.462,5.230 7.679,5.289 ZM8.781,9.491 L10.394,12.242 C11.028,11.782 11.562,11.196 11.958,10.522 C12.352,9.851 12.601,9.108 12.689,8.330 L12.689,8.330 L9.462,8.330 C9.345,8.778 9.106,9.177 8.781,9.491 ZM6.998,8.956 C7.700,8.956 8.270,8.395 8.270,7.704 C8.270,7.012 7.700,6.451 6.998,6.451 C6.295,6.451 5.725,7.012 5.725,7.704 C5.725,8.395 6.295,8.956 6.998,8.956 Z" class="cls-1"/>
</svg>
