<svg xmlns="http://www.w3.org/2000/svg" xmlns:xlink="http://www.w3.org/1999/xlink" preserveAspectRatio="xMidYMid" width="14" height="14" viewBox="0 0 14 14">
  <defs>
    <style>
      .cls-1 {
        fill: #bdc3d3;
        fill-rule: evenodd;
      }
    </style>
  </defs>
  <path d="M7.000,14.000 C3.134,14.000 -0.000,10.866 -0.000,7.000 C-0.000,3.134 3.134,-0.000 7.000,-0.000 C10.866,-0.000 14.000,3.134 14.000,7.000 C14.000,10.866 10.866,14.000 7.000,14.000 ZM7.000,12.727 C10.163,12.727 12.727,10.163 12.727,7.000 C12.727,3.837 10.163,1.273 7.000,1.273 C3.837,1.273 1.273,3.837 1.273,7.000 C1.273,10.163 3.837,12.727 7.000,12.727 ZM6.682,10.500 L6.682,7.000 L6.045,7.000 C5.694,7.000 5.409,6.715 5.409,6.363 C5.409,6.012 5.694,5.727 6.045,5.727 L7.318,5.727 C7.670,5.727 7.954,6.012 7.954,6.363 L7.954,10.500 C7.954,10.851 7.670,11.136 7.318,11.136 C6.967,11.136 6.682,10.851 6.682,10.500 ZM6.364,3.818 C6.364,3.467 6.648,3.182 7.000,3.182 C7.351,3.182 7.636,3.467 7.636,3.818 C7.636,4.169 7.351,4.454 7.000,4.454 C6.648,4.454 6.364,4.169 6.364,3.818 Z" class="cls-1"/>
</svg>
