<svg xmlns="http://www.w3.org/2000/svg" xmlns:xlink="http://www.w3.org/1999/xlink" preserveAspectRatio="xMidYMid" width="12" height="15" viewBox="0 0 12 15">
  <defs>
    <style>
      .cls-1 {
        fill: #bdc3d3;
        fill-rule: evenodd;
      }
    </style>
  </defs>
  <path d="M6.810,14.582 C6.346,14.947 5.676,14.947 5.212,14.582 C1.791,11.883 0.048,9.239 0.048,6.629 C0.048,3.481 2.718,0.930 6.011,0.930 C9.304,0.930 11.974,3.481 11.974,6.629 C11.974,9.239 10.231,11.883 6.810,14.582 ZM10.719,6.629 C10.719,4.144 8.611,2.130 6.011,2.130 C3.411,2.130 1.303,4.144 1.303,6.629 C1.303,8.815 2.851,11.164 6.011,13.656 C9.171,11.164 10.719,8.815 10.719,6.629 ZM6.011,8.429 C4.624,8.429 3.500,7.354 3.500,6.029 C3.500,4.704 4.624,3.629 6.011,3.629 C7.398,3.629 8.522,4.704 8.522,6.029 C8.522,7.354 7.398,8.429 6.011,8.429 ZM6.011,7.229 C6.704,7.229 7.266,6.692 7.266,6.029 C7.266,5.366 6.704,4.829 6.011,4.829 C5.318,4.829 4.756,5.366 4.756,6.029 C4.756,6.692 5.318,7.229 6.011,7.229 Z" class="cls-1"/>
</svg>
