<svg xmlns="http://www.w3.org/2000/svg" xmlns:xlink="http://www.w3.org/1999/xlink" preserveAspectRatio="xMidYMid" width="14" height="12" viewBox="0 0 14 12">
  <defs>
    <style>
      .cls-1 {
        fill: #bdc3d3;
        fill-rule: evenodd;
      }
    </style>
  </defs>
  <path d="M13.221,0.950 C13.650,0.950 13.998,1.301 13.998,1.734 C13.998,2.167 13.650,2.518 13.221,2.518 L0.778,2.518 C0.349,2.518 0.001,2.167 0.001,1.734 C0.001,1.301 0.349,0.950 0.778,0.950 L13.221,0.950 ZM13.221,5.656 C13.650,5.656 13.998,6.007 13.998,6.440 C13.998,6.873 13.650,7.224 13.221,7.224 L0.778,7.224 C0.349,7.224 0.001,6.873 0.001,6.440 C0.001,6.007 0.349,5.656 0.778,5.656 L13.221,5.656 ZM13.221,10.362 C13.650,10.362 13.998,10.713 13.998,11.146 C13.998,11.579 13.650,11.930 13.221,11.930 L0.778,11.930 C0.349,11.930 0.001,11.579 0.001,11.146 C0.001,10.713 0.349,10.362 0.778,10.362 L13.221,10.362 Z" class="cls-1"/>
</svg>
