<svg xmlns="http://www.w3.org/2000/svg" xmlns:xlink="http://www.w3.org/1999/xlink" preserveAspectRatio="xMidYMid" width="15" height="14" viewBox="0 0 15 14">
  <defs>
    <style>
      .cls-1 {
        fill: #bdc3d3;
        fill-rule: evenodd;
      }
    </style>
  </defs>
  <path d="M2.347,12.632 L4.282,12.632 L10.368,6.545 L8.434,4.611 L2.347,10.697 L2.347,12.632 ZM1.180,9.930 L7.950,3.160 C8.217,2.893 8.651,2.893 8.918,3.160 L11.819,6.061 C12.086,6.328 12.086,6.762 11.819,7.029 L5.049,13.799 C4.920,13.927 4.746,13.999 4.565,13.999 L1.663,13.999 C1.286,13.999 0.980,13.693 0.980,13.315 L0.980,10.414 C0.980,10.233 1.052,10.059 1.180,9.930 ZM11.336,5.578 L13.270,3.643 L11.336,1.709 L9.401,3.643 L11.336,5.578 ZM7.950,3.160 L10.852,0.258 C11.119,-0.009 11.552,-0.009 11.819,0.258 L14.721,3.160 C14.988,3.427 14.988,3.860 14.721,4.127 L11.819,7.029 C11.552,7.296 11.119,7.296 10.852,7.029 L7.950,4.127 C7.683,3.860 7.683,3.427 7.950,3.160 Z" class="cls-1"/>
</svg>
