<svg xmlns="http://www.w3.org/2000/svg" xmlns:xlink="http://www.w3.org/1999/xlink" preserveAspectRatio="xMidYMid" width="11" height="14" viewBox="0 0 11 14">
  <defs>
    <style>
      .cls-1 {
        fill: #bdc3d3;
        fill-rule: evenodd;
      }
    </style>
  </defs>
  <path d="M9.506,8.906 L9.506,2.540 C9.506,1.837 8.945,1.267 8.252,1.267 L3.235,1.267 C2.542,1.267 1.981,1.837 1.981,2.540 L1.981,8.906 L9.506,8.906 ZM9.506,10.179 L1.981,10.179 L1.981,11.452 C1.981,12.155 2.542,12.725 3.235,12.725 L8.252,12.725 C8.945,12.725 9.506,12.155 9.506,11.452 L9.506,10.179 ZM3.235,-0.006 L8.252,-0.006 C9.637,-0.006 10.761,1.134 10.761,2.540 L10.761,11.452 C10.761,12.858 9.637,13.998 8.252,13.998 L3.235,13.998 C1.849,13.998 0.726,12.858 0.726,11.452 L0.726,2.540 C0.726,1.134 1.849,-0.006 3.235,-0.006 ZM5.743,12.407 C5.224,12.407 4.803,11.979 4.803,11.452 C4.803,10.925 5.224,10.497 5.743,10.497 C6.263,10.497 6.684,10.925 6.684,11.452 C6.684,11.979 6.263,12.407 5.743,12.407 Z" class="cls-1"/>
</svg>
