<svg xmlns="http://www.w3.org/2000/svg" xmlns:xlink="http://www.w3.org/1999/xlink" preserveAspectRatio="xMidYMid" width="14" height="14" viewBox="0 0 14 14">
  <defs>
    <style>
      .cls-1 {
        fill: #fff;
        fill-rule: evenodd;
      }
    </style>
  </defs>
  <path d="M6.300,6.300 L0.700,6.300 C0.313,6.300 -0.000,6.613 -0.000,7.000 C-0.000,7.386 0.313,7.700 0.700,7.700 L6.300,7.700 L6.300,13.300 C6.300,13.686 6.613,14.000 7.000,14.000 C7.387,14.000 7.700,13.686 7.700,13.300 L7.700,7.700 L13.300,7.700 C13.687,7.700 14.000,7.386 14.000,7.000 C14.000,6.613 13.687,6.300 13.300,6.300 L7.700,6.300 L7.700,0.700 C7.700,0.313 7.387,-0.000 7.000,-0.000 C6.613,-0.000 6.300,0.313 6.300,0.700 L6.300,6.300 Z" class="cls-1"/>
</svg>
