<svg xmlns="http://www.w3.org/2000/svg" xmlns:xlink="http://www.w3.org/1999/xlink" preserveAspectRatio="xMidYMid" width="17" height="17" viewBox="0 0 17 17">
  <defs>
    <style>
      .cls-1 {
        fill: #fff;
        fill-rule: evenodd;
      }
    </style>
  </defs>
  <path d="M4.318,14.021 C6.945,16.125 10.791,15.959 13.227,13.524 C15.840,10.910 15.840,6.673 13.227,4.060 C10.791,1.624 6.945,1.459 4.318,3.563 L5.378,4.623 C7.416,3.094 10.321,3.257 12.175,5.111 C14.208,7.144 14.208,10.440 12.175,12.472 C10.321,14.326 7.416,14.489 5.378,12.961 L4.318,14.021 L4.318,14.021 ZM3.266,12.969 L7.444,8.792 L3.266,4.614 C1.315,7.050 1.315,10.533 3.266,12.969 L3.266,12.969 ZM7.674,6.919 C8.422,6.591 9.328,6.733 9.941,7.346 C10.740,8.144 10.740,9.439 9.941,10.238 C9.328,10.851 8.422,10.993 7.674,10.665 L6.445,11.894 C7.888,12.850 9.852,12.692 11.124,11.421 C12.576,9.969 12.576,7.615 11.124,6.163 C9.852,4.891 7.888,4.733 6.445,5.690 L7.674,6.919 L7.674,6.919 ZM14.279,3.008 C17.473,6.202 17.473,11.381 14.279,14.575 C11.084,17.769 5.906,17.769 2.711,14.575 C-0.483,11.381 -0.483,6.202 2.711,3.008 C5.906,-0.186 11.084,-0.186 14.279,3.008 Z" class="cls-1"/>
</svg>
