<svg xmlns="http://www.w3.org/2000/svg" xmlns:xlink="http://www.w3.org/1999/xlink" preserveAspectRatio="xMidYMid" width="15" height="15" viewBox="0 0 15 15">
  <defs>
    <style>
      .cls-1 {
        fill: #bdc3d3;
        fill-rule: evenodd;
      }
    </style>
  </defs>
  <path d="M0.865,6.362 L0.818,3.629 C0.793,2.198 1.921,1.018 3.337,0.993 L6.043,0.946 C6.741,0.933 7.414,1.209 7.906,1.709 L13.831,7.731 C14.816,8.731 14.827,10.342 13.857,11.357 L11.437,13.889 C10.467,14.903 8.873,14.948 7.849,13.989 L1.685,8.217 C1.173,7.737 0.877,7.068 0.865,6.362 ZM2.147,6.340 C2.153,6.692 2.301,7.027 2.557,7.267 L8.721,13.039 C9.233,13.518 10.030,13.496 10.515,12.989 L12.935,10.457 C13.420,9.950 13.414,9.144 12.922,8.644 L6.997,2.623 C6.751,2.373 6.414,2.235 6.065,2.241 L3.359,2.288 C2.651,2.301 2.087,2.891 2.100,3.606 L2.147,6.340 ZM5.047,7.081 C3.985,7.081 3.124,6.211 3.124,5.138 C3.124,4.065 3.985,3.195 5.047,3.195 C6.110,3.195 6.971,4.065 6.971,5.138 C6.971,6.211 6.110,7.081 5.047,7.081 ZM5.047,5.785 C5.401,5.785 5.688,5.496 5.688,5.138 C5.688,4.780 5.401,4.490 5.047,4.490 C4.693,4.490 4.406,4.780 4.406,5.138 C4.406,5.496 4.693,5.785 5.047,5.785 Z" class="cls-1"/>
</svg>
