<svg xmlns="http://www.w3.org/2000/svg" xmlns:xlink="http://www.w3.org/1999/xlink" preserveAspectRatio="xMidYMid" width="14" height="14" viewBox="0 0 14 14">
  <defs>
    <style>
      .cls-1 {
        fill: #bdc3d3;
        fill-rule: evenodd;
      }
    </style>
  </defs>
  <path d="M10.600,11.454 C10.379,11.452 10.161,11.408 9.955,11.326 C9.034,10.958 8.586,9.912 8.955,8.991 C8.979,8.929 8.992,8.863 8.992,8.796 C8.992,8.507 8.758,8.273 8.468,8.273 L8.273,8.273 C6.867,8.273 5.727,7.133 5.727,5.727 L5.727,5.091 C5.727,3.334 7.152,1.909 8.909,1.909 L9.626,1.909 C8.840,1.502 7.947,1.273 7.000,1.273 C5.300,1.273 3.773,2.014 2.724,3.190 C3.694,3.280 4.455,4.097 4.455,5.091 L4.455,5.216 C4.455,6.146 3.990,7.014 3.217,7.529 C3.124,7.591 3.098,7.717 3.160,7.810 C3.172,7.828 3.186,7.843 3.202,7.856 L3.898,8.412 C4.530,8.918 4.633,9.842 4.127,10.474 C3.880,10.783 3.520,10.978 3.127,11.018 L2.937,11.037 C3.295,11.397 3.701,11.710 4.144,11.966 C4.849,10.937 6.207,10.525 7.387,11.049 C8.012,11.327 8.498,11.833 8.753,12.454 C9.433,12.235 10.058,11.893 10.600,11.454 ZM11.763,10.182 C12.372,9.272 12.727,8.177 12.727,7.000 C12.727,5.533 12.176,4.195 11.269,3.182 L8.909,3.182 C7.855,3.182 7.000,4.036 7.000,5.091 L7.000,5.727 C7.000,6.430 7.570,7.000 8.273,7.000 L8.468,7.000 C9.460,7.000 10.265,7.804 10.265,8.796 C10.265,9.025 10.221,9.251 10.136,9.464 C10.029,9.732 10.159,10.037 10.428,10.144 C10.490,10.169 10.556,10.182 10.622,10.182 L11.763,10.182 ZM2.030,9.848 L3.000,9.751 C3.052,9.746 3.100,9.720 3.133,9.679 C3.200,9.595 3.186,9.473 3.102,9.406 L2.407,8.850 C2.289,8.755 2.186,8.643 2.101,8.516 C1.650,7.838 1.833,6.922 2.511,6.470 C2.930,6.191 3.182,5.720 3.182,5.216 L3.182,5.091 C3.182,4.739 2.897,4.454 2.545,4.454 L1.868,4.454 C1.487,5.221 1.273,6.086 1.273,7.000 C1.273,8.037 1.548,9.009 2.030,9.848 ZM5.359,12.489 C5.879,12.644 6.430,12.727 7.000,12.727 C7.153,12.727 7.305,12.721 7.456,12.709 C7.314,12.494 7.112,12.320 6.870,12.212 C6.343,11.978 5.746,12.106 5.359,12.489 ZM7.000,14.000 C3.134,14.000 -0.000,10.866 -0.000,7.000 C-0.000,3.134 3.134,-0.000 7.000,-0.000 C10.866,-0.000 14.000,3.134 14.000,7.000 C14.000,10.866 10.866,14.000 7.000,14.000 Z" class="cls-1"/>
</svg>
