<svg xmlns="http://www.w3.org/2000/svg" xmlns:xlink="http://www.w3.org/1999/xlink" preserveAspectRatio="xMidYMid" width="14" height="14" viewBox="0 0 14 14">
  <defs>
    <style>
      .cls-1 {
        fill: #bfc3d3;
        fill-rule: evenodd;
      }
    </style>
  </defs>
  <path d="M14.000,9.093 C14.000,9.098 14.000,9.103 14.000,9.108 L14.000,11.200 C14.000,12.746 12.746,14.000 11.200,14.000 L2.800,14.000 C1.254,14.000 -0.000,12.746 -0.000,11.200 L-0.000,2.800 C-0.000,1.253 1.254,-0.000 2.800,-0.000 L11.200,-0.000 C12.746,-0.000 14.000,1.253 14.000,2.800 L14.000,9.093 ZM12.600,7.700 L12.600,2.800 C12.600,2.027 11.973,1.400 11.200,1.400 L2.800,1.400 C2.027,1.400 1.400,2.027 1.400,2.800 L1.400,11.200 C1.400,11.500 1.494,11.778 1.655,12.006 L3.497,9.243 C4.140,8.278 5.444,8.017 6.409,8.661 C6.441,8.682 6.473,8.705 6.504,8.728 L7.577,9.533 L9.106,7.622 C9.814,6.737 11.098,6.573 12.005,7.254 L12.600,7.700 ZM12.600,9.450 L11.165,8.374 C10.863,8.147 10.435,8.201 10.199,8.497 L8.246,10.937 C8.010,11.232 7.582,11.287 7.280,11.060 L5.664,9.848 C5.654,9.840 5.643,9.833 5.632,9.825 C5.311,9.611 4.876,9.698 4.661,10.020 L2.941,12.600 L11.200,12.600 C11.973,12.600 12.600,11.973 12.600,11.200 L12.600,9.450 ZM4.550,7.000 C3.197,7.000 2.100,5.903 2.100,4.550 C2.100,3.197 3.197,2.100 4.550,2.100 C5.903,2.100 7.000,3.197 7.000,4.550 C7.000,5.903 5.903,7.000 4.550,7.000 ZM4.550,5.600 C5.130,5.600 5.600,5.130 5.600,4.550 C5.600,3.970 5.130,3.500 4.550,3.500 C3.970,3.500 3.500,3.970 3.500,4.550 C3.500,5.130 3.970,5.600 4.550,5.600 Z" class="cls-1"/>
</svg>
