<svg xmlns="http://www.w3.org/2000/svg" xmlns:xlink="http://www.w3.org/1999/xlink" preserveAspectRatio="xMidYMid" width="20" height="20" viewBox="0 0 20 20">
  <defs>
    <style>
      .cls-1 {
        fill: #bdc3d3;
        fill-rule: evenodd;
      }
    </style>
  </defs>
  <path d="M0.833,10.311 L2.910,10.311 C4.026,10.311 5.007,9.615 5.313,8.606 L6.635,4.260 C6.738,3.920 7.115,3.723 7.477,3.820 C7.719,3.885 7.904,4.070 7.956,4.302 L10.414,15.081 C10.686,16.274 11.934,17.033 13.202,16.777 C14.050,16.607 14.730,16.009 14.968,15.225 L16.289,10.879 C16.391,10.543 16.718,10.311 17.090,10.311 L19.167,10.311 C19.627,10.311 20.000,9.960 20.000,9.527 C20.000,9.095 19.627,8.744 19.167,8.744 L17.090,8.744 C15.974,8.744 14.993,9.440 14.687,10.449 L13.365,14.795 C13.296,15.023 13.099,15.196 12.853,15.246 C12.485,15.320 12.122,15.100 12.044,14.753 L9.586,3.974 C9.404,3.176 8.769,2.538 7.935,2.314 C6.688,1.978 5.388,2.657 5.032,3.830 L3.711,8.176 C3.609,8.513 3.282,8.744 2.910,8.744 L0.833,8.744 C0.373,8.744 0.000,9.095 0.000,9.527 C0.000,9.960 0.373,10.311 0.833,10.311 Z" class="cls-1"/>
</svg>
