<svg xmlns="http://www.w3.org/2000/svg" xmlns:xlink="http://www.w3.org/1999/xlink" preserveAspectRatio="xMidYMid" width="20" height="20" viewBox="0 0 20 20">
  <defs>
    <style>
      .cls-1 {
        fill: #bdc3d3;
        fill-rule: evenodd;
      }
    </style>
  </defs>
  <path d="M3.244,2.234 C3.395,2.090 3.603,2.000 3.833,2.000 L8.000,2.000 C8.721,2.000 9.423,2.225 10.000,2.640 L12.000,4.080 C12.289,4.288 12.639,4.400 13.000,4.400 L16.333,4.400 C17.254,4.400 18.000,5.116 18.000,6.000 L18.000,14.000 C18.000,14.884 17.254,15.600 16.333,15.600 L13.000,15.600 C12.279,15.600 11.577,15.375 11.000,14.960 L9.000,13.520 C8.712,13.312 8.361,13.200 8.000,13.200 L4.667,13.200 L4.667,17.200 C4.667,17.642 4.294,18.000 3.833,18.000 C3.373,18.000 3.000,17.642 3.000,17.200 L3.000,2.800 C3.000,2.579 3.093,2.379 3.244,2.234 ZM4.667,3.600 L4.667,11.600 L8.000,11.600 C8.721,11.600 9.423,11.825 10.000,12.240 L12.000,13.680 C12.289,13.888 12.639,14.000 13.000,14.000 L16.333,14.000 L16.333,6.000 L13.000,6.000 C12.279,6.000 11.577,5.775 11.000,5.360 L9.000,3.920 C8.712,3.712 8.361,3.600 8.000,3.600 L4.667,3.600 Z" class="cls-1"/>
</svg>
