<svg xmlns="http://www.w3.org/2000/svg" xmlns:xlink="http://www.w3.org/1999/xlink" preserveAspectRatio="xMidYMid" width="20" height="20" viewBox="0 0 20 20">
  <defs>
    <style>
      .cls-1 {
        fill: #bdc3d3;
        fill-rule: evenodd;
      }
    </style>
  </defs>
  <path d="M9.351,19.541 C9.004,19.188 9.004,18.622 9.351,18.269 C11.502,16.074 12.727,13.135 12.727,10.000 C12.727,6.865 11.502,3.926 9.351,1.731 C9.004,1.378 9.004,0.812 9.351,0.459 C9.415,0.393 9.480,0.328 9.545,0.264 C9.720,0.093 9.956,-0.000 10.200,0.005 C15.638,0.111 20.000,4.553 20.000,10.000 C20.000,15.447 15.638,19.889 10.200,19.995 C9.956,20.000 9.720,19.907 9.545,19.736 C9.480,19.672 9.415,19.607 9.351,19.541 ZM10.649,18.269 C10.705,18.326 10.761,18.382 10.818,18.438 L10.182,19.087 L10.164,18.178 C10.796,18.166 11.411,18.082 12.000,17.934 C15.556,17.041 18.182,13.823 18.182,10.000 C18.182,6.177 15.556,2.959 12.000,2.066 C11.411,1.918 10.796,1.834 10.164,1.822 L10.182,0.913 L10.818,1.562 C10.761,1.618 10.705,1.674 10.649,1.731 L10.000,1.095 L10.649,0.459 C11.143,0.962 11.594,1.500 12.000,2.066 C13.637,4.349 14.545,7.103 14.545,10.000 C14.545,12.897 13.637,15.651 12.000,17.934 C11.594,18.500 11.143,19.038 10.649,19.541 L10.000,18.905 L10.649,18.269 ZM7.843,13.635 C8.402,15.369 9.359,16.953 10.649,18.269 C10.996,18.622 10.996,19.188 10.649,19.541 C10.585,19.607 10.520,19.672 10.455,19.736 C10.280,19.907 10.044,20.000 9.800,19.995 C4.362,19.889 0.000,15.447 0.000,10.000 C0.000,4.553 4.362,0.111 9.800,0.005 C10.044,-0.000 10.280,0.093 10.455,0.264 C10.520,0.328 10.585,0.393 10.649,0.459 C10.996,0.812 10.996,1.378 10.649,1.731 C9.359,3.047 8.402,4.631 7.843,6.365 L18.182,6.365 C18.684,6.365 19.091,6.771 19.091,7.273 C19.091,7.775 18.684,8.182 18.182,8.182 L7.412,8.182 C7.320,8.778 7.273,9.385 7.273,10.000 C7.273,10.615 7.320,11.222 7.412,11.818 L18.182,11.818 C18.684,11.818 19.091,12.225 19.091,12.727 C19.091,13.229 18.684,13.635 18.182,13.635 L7.843,13.635 ZM5.575,11.818 C5.495,11.220 5.455,10.613 5.455,10.000 C5.455,9.387 5.495,8.780 5.575,8.182 L2.021,8.182 C1.888,8.767 1.818,9.375 1.818,10.000 C1.818,10.625 1.888,11.233 2.021,11.818 L5.575,11.818 ZM5.945,13.635 L2.669,13.635 C3.720,15.749 5.658,17.346 8.000,17.934 C8.589,18.082 9.204,18.166 9.836,18.178 L9.818,19.087 L9.182,18.438 C9.239,18.382 9.295,18.326 9.351,18.269 L10.000,18.905 L9.351,19.541 C8.857,19.038 8.406,18.500 8.000,17.934 C7.068,16.634 6.372,15.181 5.945,13.635 ZM5.945,6.365 C6.372,4.819 7.068,3.366 8.000,2.066 C8.406,1.500 8.857,0.962 9.351,0.459 L10.000,1.095 L9.351,1.731 C9.295,1.674 9.239,1.618 9.182,1.562 L9.818,0.913 L9.836,1.822 C9.204,1.834 8.589,1.918 8.000,2.066 C5.658,2.654 3.720,4.251 2.669,6.365 L5.945,6.365 Z" class="cls-1"/>
</svg>
