<svg xmlns="http://www.w3.org/2000/svg" xmlns:xlink="http://www.w3.org/1999/xlink" preserveAspectRatio="xMidYMid" width="20" height="20" viewBox="0 0 20 20">
  <defs>
    <style>
      .cls-1 {
        fill: #bdc3d3;
        fill-rule: evenodd;
      }
    </style>
  </defs>
  <path d="M17.083,13.000 L17.083,6.333 C17.083,5.413 16.337,4.667 15.417,4.667 L4.583,4.667 C3.663,4.667 2.917,5.413 2.917,6.333 L2.917,13.000 L17.083,13.000 ZM1.250,13.334 L1.250,6.333 C1.250,4.492 2.742,3.000 4.583,3.000 L15.417,3.000 C17.258,3.000 18.750,4.492 18.750,6.333 L18.750,13.334 C19.497,13.767 20.000,14.575 20.000,15.500 C20.000,16.881 18.881,18.000 17.500,18.000 L2.500,18.000 C1.119,18.000 0.000,16.881 0.000,15.500 C0.000,14.575 0.503,13.767 1.250,13.334 ZM17.500,14.667 L11.983,14.667 C10.825,15.587 9.175,15.587 8.017,14.667 L2.500,14.667 C2.040,14.667 1.667,15.040 1.667,15.500 C1.667,15.960 2.040,16.333 2.500,16.333 L17.500,16.333 C17.960,16.333 18.333,15.960 18.333,15.500 C18.333,15.040 17.960,14.667 17.500,14.667 Z" class="cls-1"/>
</svg>
