<svg xmlns="http://www.w3.org/2000/svg" xmlns:xlink="http://www.w3.org/1999/xlink" preserveAspectRatio="xMidYMid" width="20" height="20" viewBox="0 0 20 20">
  <defs>
    <style>
      .cls-1 {
        fill: #bdc3d3;
        fill-rule: evenodd;
      }
    </style>
  </defs>
  <path d="M15.600,12.455 L15.600,4.273 C15.600,3.369 14.973,2.636 14.200,2.636 L5.800,2.636 C5.027,2.636 4.400,3.369 4.400,4.273 L4.400,12.455 L15.600,12.455 ZM15.600,14.091 L4.400,14.091 L4.400,15.727 C4.400,16.631 5.027,17.364 5.800,17.364 L14.200,17.364 C14.973,17.364 15.600,16.631 15.600,15.727 L15.600,14.091 ZM17.000,4.273 L17.000,15.727 C17.000,17.535 15.746,19.000 14.200,19.000 L5.800,19.000 C4.254,19.000 3.000,17.535 3.000,15.727 L3.000,4.273 C3.000,2.465 4.254,1.000 5.800,1.000 L14.200,1.000 C15.746,1.000 17.000,2.465 17.000,4.273 ZM10.000,16.955 C9.420,16.955 8.950,16.405 8.950,15.727 C8.950,15.049 9.420,14.500 10.000,14.500 C10.580,14.500 11.050,15.049 11.050,15.727 C11.050,16.405 10.580,16.955 10.000,16.955 Z" class="cls-1"/>
</svg>
